<svg width="98" height="69" viewBox="0 0 98 69" fill="none" xmlns="http://www.w3.org/2000/svg">
<g clip-path="url(#clip0)">
<path d="M73.7903 6.60338C73.7943 6.66473 73.7963 6.72618 73.7963 6.78764V59.6319C73.7963 61.2633 72.4156 62.5858 70.7124 62.5858C70.6662 62.5858 70.6201 62.5849 70.574 62.5829L29.4095 60.812C27.8063 60.743 26.5263 59.5079 26.4661 57.9719L24.566 9.47647C24.5032 7.87486 25.7854 6.51751 27.4554 6.41753L61.2118 4.39652L60.9183 11.0552C60.915 11.132 60.9326 11.2078 60.969 11.2753L61.0114 11.3398C61.165 11.5337 61.4535 11.5717 61.656 11.4246L64.3562 9.46266L66.6369 11.1835C66.7223 11.248 66.8289 11.2814 66.9376 11.2778C67.1915 11.2693 67.3902 11.0652 67.3813 10.822L67.1261 4.04211L70.52 3.83949C72.2199 3.73772 73.6841 4.97516 73.7903 6.60338Z" fill="#FF4785"/>
<mask id="mask0" style="mask-type:alpha" maskUnits="userSpaceOnUse" x="24" y="3" width="50" height="60">
<path d="M26.4661 57.9719L24.566 9.47647C24.5032 7.87486 25.7854 6.51751 27.4554 6.41753L70.52 3.83949C72.2199 3.73772 73.6841 4.97516 73.7903 6.60338C73.7943 6.66473 73.7963 6.72618 73.7963 6.78764V59.6319C73.7963 61.2633 72.4156 62.5858 70.7124 62.5858C70.6662 62.5858 70.6201 62.5849 70.574 62.5829L29.4095 60.812C27.8063 60.743 26.5263 59.5079 26.4661 57.9719Z" fill="white"/>
</mask>
<g mask="url(#mask0)">
<path d="M53.3548 25.9781C53.3548 27.1274 61.4367 26.5766 62.5216 25.7693C62.5216 17.9432 58.1375 13.8308 50.1094 13.8308C42.0812 13.8308 37.5832 18.0072 37.5832 24.2719C37.5832 35.1829 52.9562 35.3917 52.9562 41.3432C52.9562 43.0138 52.1022 44.0057 50.2232 44.0057C47.7749 44.0057 46.807 42.8081 46.9209 38.736C46.9209 37.8526 37.5832 37.5772 37.2985 38.736C36.5736 48.604 42.9922 51.4504 50.3371 51.4504C57.4542 51.4504 63.0341 47.8167 63.0341 41.2388C63.0341 29.5447 47.4333 29.8579 47.4333 24.0631C47.4333 21.7138 49.2553 21.4006 50.3371 21.4006C51.4759 21.4006 53.5256 21.5928 53.3548 25.9781Z" fill="white"/>
<path d="M60.9183 11.0552L61.2124 4.39422L67.1265 4.04048L67.3813 10.822C67.3902 11.0652 67.1915 11.2693 66.9376 11.2777C66.8289 11.2814 66.7223 11.248 66.6368 11.1835L64.3562 9.46265L61.656 11.4246C61.4535 11.5717 61.165 11.5337 61.0114 11.3398C60.9468 11.2582 60.9138 11.1576 60.9183 11.0552Z" fill="white"/>
</g>
<path d="M64.451 19.4711L64.8412 37.5347L70.8704 37.4793L70.6648 31.514L71.0022 31.1823L88.7552 48.9637C90.9959 51.208 91.1 54.7241 88.9873 56.801L85.9447 59.7919C83.832 61.8688 80.2897 61.7326 78.049 59.4884L76.1661 57.6025L70.2476 63.4205L72.6076 65.7843C76.6715 69.8547 83.059 70.1023 86.8928 66.3335L94.7834 58.5768C98.6152 54.81 98.4295 48.47 94.3635 44.3975L76.1632 26.168L76.3881 25.9469L82.8479 25.705L82.5664 20.1101L64.451 19.4711Z" fill="#911AEE"/>
<path d="M33.2608 49.5289L32.8761 31.4669L26.9076 31.5221L27.1113 37.4876L26.7773 37.8192L9.20256 20.0367C6.98437 17.7923 6.88118 14.2761 8.97257 12.1992L11.9844 9.20828C14.0758 7.13139 17.5825 7.2677 19.8006 9.51212L21.6646 11.3981L27.5233 5.58005L25.187 3.21616C21.1639 -0.854505 14.8408 -1.10235 11.0457 2.66646L3.23478 10.4232C-0.558349 14.19 -0.374349 20.5302 3.65087 24.603L21.6684 42.8335L21.4458 43.0546L15.0511 43.2964L15.3299 48.8914L33.2608 49.5289Z" fill="#911AEE"/>
</g>
<defs>
<clipPath id="clip0">
<rect width="98" height="69" fill="white"/>
</clipPath>
</defs>
</svg>
